<?xml version="1.0" encoding="UTF-8"?>
<svg version="1.1" xmlns="http://www.w3.org/2000/svg" width="536" height="427">
<path d="M0 0 C0.5878125 0.44988281 1.175625 0.89976562 1.78125 1.36328125 C8.95631688 7.70440396 14.14065409 17.35692363 15.61328125 26.8046875 C15.99357356 29.19620301 15.99357356 29.19620301 16.94140625 32.234375 C20.71233001 45.64828831 21.31162995 59.27307419 21.375 73.125 C21.38267395 73.83678406 21.3903479 74.54856812 21.39825439 75.28192139 C21.57094651 95.32402565 21.57094651 95.32402565 15.875 101.1875 C8.16147887 103.36740815 -1.58037001 100.4521818 -8.421875 96.65625 C-9.19015625 96.1921875 -9.9584375 95.728125 -10.75 95.25 C-13.51984602 93.66514092 -15.02399803 92.9967695 -18.25 92.5625 C-22.78164812 94.93131606 -24.11943688 99.41508725 -26 104 C-26.66 104 -27.32 104 -28 104 C-28.02714434 106.7084017 -28.04690846 109.41652721 -28.0625 112.125 C-28.07506836 113.26582031 -28.07506836 113.26582031 -28.08789062 114.4296875 C-28.18192317 120.79606898 -28.18192317 120.79606898 -27 127 C-22.00855808 131.13601813 -16.20118624 130.75501486 -10 131 C-9.12085938 131.04125 -8.24171875 131.0825 -7.3359375 131.125 C7.05524693 131.47282319 20.15725827 128.56375132 33.625 123.6875 C39.63819072 122.46259078 45.22511933 122.25989218 50.56640625 125.609375 C59.68213346 133.35849401 62.01198282 141.75099415 65 153 C65.34289062 154.04929687 65.68578125 155.09859375 66.0390625 156.1796875 C69.49303892 169.91134986 71.67236018 188.48840963 65.25 201.5625 C62.71424045 204.30957284 60.27050105 206.19078665 57 208 C56.01 208 55.02 208 54 208 C54 208.66 54 209.32 54 210 C39.94238753 214.09370033 27.40586695 214.46864913 13 212 C12.09378906 211.8659375 11.18757813 211.731875 10.25390625 211.59375 C3.38374543 210.45055524 -2.65653433 207.7981202 -9 205 C-11.2480255 204.05777519 -13.49796728 203.12010649 -15.75 202.1875 C-17.5 201.45833333 -19.25 200.72916667 -21 200 C-21 199.34 -21 198.68 -21 198 C-21.70125 197.9175 -22.4025 197.835 -23.125 197.75 C-26.74089263 196.80672366 -28.97164986 195.19703834 -32 193 C-32.71285156 192.49597656 -33.42570312 191.99195313 -34.16015625 191.47265625 C-38.44212417 188.38389985 -38.44212417 188.38389985 -40 187 C-40 186.34 -40 185.68 -40 185 C-40.5775 184.74476563 -41.155 184.48953125 -41.75 184.2265625 C-53.54116448 177.7987402 -65.4191814 160.0183418 -71 148 C-71 147.01 -71 146.02 -71 145 C-71.66 145 -72.32 145 -73 145 C-73.33 143.02 -73.66 141.04 -74 139 C-74.66 139 -75.32 139 -76 139 C-76.19335938 138.33613281 -76.38671875 137.67226563 -76.5859375 136.98828125 C-76.84632812 136.10527344 -77.10671875 135.22226562 -77.375 134.3125 C-77.63023438 133.44238281 -77.88546875 132.57226562 -78.1484375 131.67578125 C-78.9616771 129.00548701 -78.9616771 129.00548701 -80.0078125 126.49609375 C-85.88242038 111.71706055 -91.23644618 89.02041673 -85.375 73.625 C-82.96868997 68.53638739 -79.97981313 63.76770101 -77 59 C-76.67 58.34 -76.34 57.68 -76 57 C-77.74951568 56.04078278 -79.49963244 55.08266183 -81.25 54.125 C-82.22453125 53.59132813 -83.1990625 53.05765625 -84.203125 52.5078125 C-86.45130408 51.29580534 -88.7072805 50.12452433 -91 49 C-91 48.34 -91 47.68 -91 47 C-91.598125 46.731875 -92.19625 46.46375 -92.8125 46.1875 C-94.99847854 45.00082594 -96.41332594 43.90400887 -98 42 C-98 41.34 -98 40.68 -98 40 C-98.66 40 -99.32 40 -100 40 C-101.85944408 32.54531965 -101.85944408 32.54531965 -99.80078125 28.84375 C-98.28412064 27.05166676 -96.84511912 25.45273935 -95 24 C-94.34 24 -93.68 24 -93 24 C-93 23.34 -93 22.68 -93 22 C-91.68 21.67 -90.36 21.34 -89 21 C-89 20.34 -89 19.68 -89 19 C-86.11048311 17.3428892 -83.21239261 15.70137532 -80.3125 14.0625 C-79.49587891 13.59392578 -78.67925781 13.12535156 -77.83789062 12.64257812 C-77.04189453 12.19462891 -76.24589844 11.74667969 -75.42578125 11.28515625 C-74.69786377 10.87144775 -73.96994629 10.45773926 -73.2199707 10.03149414 C-70.82133116 8.91698275 -68.60366372 8.41826727 -66 8 C-66 7.34 -66 6.68 -66 6 C-62.14667439 4.70581502 -58.29219309 3.41510574 -54.4375 2.125 C-53.35146484 1.76019531 -52.26542969 1.39539063 -51.14648438 1.01953125 C-36.31499223 -3.93932631 -13.90330381 -10.65701353 0 0 Z " fill="#4D6398" transform="translate(149,207)"/>
<path d="M0 0 C3.53361578 2.21667789 5.3930848 4.3069981 7.74609375 7.72265625 C8.34421875 8.30015625 8.94234375 8.87765625 9.55859375 9.47265625 C10.74609375 10.72265625 10.74609375 10.72265625 10.74609375 12.72265625 C11.40609375 12.72265625 12.06609375 12.72265625 12.74609375 12.72265625 C17.31142473 16.34842043 18.69399781 22.48032713 20.74609375 27.72265625 C21.26213372 28.97302274 21.77908346 30.22301409 22.296875 31.47265625 C28.05182761 45.64731992 29.98319997 58.86814265 30.05859375 74.16015625 C30.06705322 75.79476807 30.06705322 75.79476807 30.07568359 77.46240234 C30.01561233 84.12216697 29.2955669 90.25254953 27.74609375 96.72265625 C27.59487061 97.41528564 27.44364746 98.10791504 27.2878418 98.8215332 C25.34377452 107.69331197 22.80652217 115.57866307 18.74609375 123.72265625 C17.63611481 126.11580233 16.5320293 128.51168992 15.43359375 130.91015625 C14.53808015 132.84780405 13.64236362 134.78535815 12.74609375 136.72265625 C12.08609375 136.72265625 11.42609375 136.72265625 10.74609375 136.72265625 C10.41609375 138.37265625 10.08609375 140.02265625 9.74609375 141.72265625 C9.08609375 141.72265625 8.42609375 141.72265625 7.74609375 141.72265625 C7.52953125 142.40972656 7.31296875 143.09679687 7.08984375 143.8046875 C5.35519947 147.57148773 2.97150022 150.31466962 0.24609375 153.41015625 C-0.55042603 154.32728394 -0.55042603 154.32728394 -1.36303711 155.26293945 C-6.09655651 160.65865739 -11.09091974 165.73601463 -16.25390625 170.72265625 C-16.7025 171.20476562 -17.15109375 171.686875 -17.61328125 172.18359375 C-20.19161433 174.60231574 -23.0684041 176.61120523 -25.94140625 178.66015625 C-26.56845459 179.10746094 -27.19550293 179.55476562 -27.84155273 180.015625 C-32.15989072 183.05191279 -36.40248689 185.60567326 -41.25390625 187.72265625 C-41.94742188 188.08101562 -42.6409375 188.439375 -43.35546875 188.80859375 C-47.59393878 190.14525411 -51.65302173 189.93322523 -56.06640625 189.84765625 C-56.95005859 189.83863281 -57.83371094 189.82960938 -58.74414062 189.8203125 C-60.91417984 189.79685262 -63.08407872 189.7609849 -65.25390625 189.72265625 C-65.26325195 190.3367334 -65.27259766 190.95081055 -65.28222656 191.58349609 C-65.33660366 194.42230058 -65.42011177 197.25957357 -65.50390625 200.09765625 C-65.51808594 201.06316406 -65.53226562 202.02867187 -65.546875 203.0234375 C-65.7735045 209.77699646 -66.82870576 215.79960852 -70.25390625 221.72265625 C-74.36608206 224.46410679 -77.4264239 224.3091728 -82.25390625 223.72265625 C-90.90538199 221.42142196 -98.61430413 216.24724976 -106.25390625 211.72265625 C-107.28257812 211.13484375 -108.31125 210.54703125 -109.37109375 209.94140625 C-110.28117187 209.41546875 -111.19125 208.88953125 -112.12890625 208.34765625 C-112.93070312 207.88617188 -113.7325 207.4246875 -114.55859375 206.94921875 C-115.11804688 206.54445313 -115.6775 206.1396875 -116.25390625 205.72265625 C-116.25390625 205.06265625 -116.25390625 204.40265625 -116.25390625 203.72265625 C-116.85203125 203.43390625 -117.45015625 203.14515625 -118.06640625 202.84765625 C-120.25390625 201.72265625 -120.25390625 201.72265625 -123.25390625 199.72265625 C-123.25390625 199.06265625 -123.25390625 198.40265625 -123.25390625 197.72265625 C-124.08921875 197.38234375 -124.08921875 197.38234375 -124.94140625 197.03515625 C-127.93352228 195.33692823 -129.8699116 193.21501429 -132.25390625 190.72265625 C-134.29593929 188.70865111 -136.34081899 186.69757661 -138.38671875 184.6875 C-141.31002004 181.61130638 -143.65385775 178.22543454 -145.94140625 174.66015625 C-146.37839844 173.98855469 -146.81539063 173.31695312 -147.265625 172.625 C-148.25390625 170.72265625 -148.25390625 170.72265625 -148.25390625 167.72265625 C-148.91390625 167.72265625 -149.57390625 167.72265625 -150.25390625 167.72265625 C-153.24168762 160.35990931 -154.85191293 153.69890512 -152.36328125 145.94921875 C-146.31213296 132.35236144 -134.97408 121.53156889 -123.25390625 112.72265625 C-122.36703125 111.98402344 -121.48015625 111.24539063 -120.56640625 110.484375 C-118.25390625 108.72265625 -118.25390625 108.72265625 -116.25390625 108.72265625 C-116.25390625 108.06265625 -116.25390625 107.40265625 -116.25390625 106.72265625 C-114.79199219 105.58105469 -114.79199219 105.58105469 -112.73828125 104.33203125 C-111.98691895 103.87231934 -111.23555664 103.41260742 -110.46142578 102.93896484 C-109.65044434 102.45508301 -108.83946289 101.97120117 -108.00390625 101.47265625 C-107.18647949 100.97975098 -106.36905273 100.4868457 -105.52685547 99.97900391 C-83.88083681 87.0560712 -83.88083681 87.0560712 -73.25390625 88.72265625 C-68.01563888 92.99597963 -66.40354045 100.60986616 -65.56640625 107.09765625 C-65.10620562 112.29792333 -65.1661667 117.50702765 -65.25390625 122.72265625 C-62.39915319 122.80422062 -59.5467706 122.86341997 -56.69140625 122.91015625 C-55.89154297 122.93529297 -55.09167969 122.96042969 -54.26757812 122.98632812 C-46.71119162 123.07885531 -41.70616184 120.95003267 -35.44140625 116.66015625 C-34.69246094 116.15355469 -33.94351563 115.64695312 -33.171875 115.125 C-31.15337867 113.72443184 -31.15337867 113.72443184 -29.25390625 111.72265625 C-29.468097 106.47498299 -31.10773667 102.52703742 -33.33203125 97.8125 C-34.36089889 95.48010936 -34.92779669 93.25000533 -35.25390625 90.72265625 C-35.91390625 90.72265625 -36.57390625 90.72265625 -37.25390625 90.72265625 C-37.58003906 90.10777344 -37.90617187 89.49289062 -38.2421875 88.859375 C-38.67917969 88.05113281 -39.11617188 87.24289062 -39.56640625 86.41015625 C-40.21029297 85.20939453 -40.21029297 85.20939453 -40.8671875 83.984375 C-42.17641302 81.84904661 -43.44385707 80.42757631 -45.25390625 78.72265625 C-46.99816918 76.71533742 -48.7192499 74.68976711 -50.4375 72.66015625 C-52.24679606 70.73024045 -54.11414997 69.26779466 -56.25390625 67.72265625 C-68.83762936 55.80123436 -68.83762936 55.80123436 -69.56640625 46.91015625 C-69.29062344 38.24733146 -64.61239322 29.97530799 -58.484375 23.99609375 C-57.36299219 23.04328483 -56.22449036 22.10987268 -55.0625 21.20703125 C-53.1018383 19.65189884 -53.1018383 19.65189884 -50.94140625 17.3671875 C-48.05667577 14.52857916 -45.03751191 12.0976479 -41.81640625 9.66015625 C-41.26919922 9.23927734 -40.72199219 8.81839844 -40.15820312 8.38476562 C-30.12024588 0.72265625 -30.12024588 0.72265625 -26.25390625 0.72265625 C-26.25390625 0.06265625 -26.25390625 -0.59734375 -26.25390625 -1.27734375 C-15.90264965 -4.77636007 -9.88958913 -5.22259201 0 0 Z " fill="#4D6397" transform="translate(415.25390625,201.27734375)"/>
<path d="M0 0 C2.04701345 0.01072501 4.09314969 0.00004629 6.14013672 -0.01269531 C13.52016152 -0.02029046 20.37720346 0.50861564 27.55029297 2.26074219 C30.33459887 2.75451072 33.12087515 3.23066016 35.90966797 3.69824219 C38.89068978 4.33325275 41.67266925 5.2576011 44.55029297 6.26074219 C45.60990234 6.61394531 46.66951172 6.96714844 47.76123047 7.33105469 C50.69091797 8.30761719 53.62060547 9.28417969 56.55029297 10.26074219 C56.55029297 10.92074219 56.55029297 11.58074219 56.55029297 12.26074219 C57.27861328 12.35742188 58.00693359 12.45410156 58.75732422 12.55371094 C61.93677786 13.35857962 63.67881085 14.54430391 66.23779297 16.57324219 C67.38828125 17.46462891 67.38828125 17.46462891 68.56201172 18.37402344 C70.56538183 20.2750603 71.44477698 21.76572445 72.55029297 24.26074219 C73.87839512 25.93158037 75.21201993 27.59803932 76.55029297 29.26074219 C77.56528604 30.9183208 78.56763835 32.58379029 79.55029297 34.26074219 C80.08396484 33.75285156 80.61763672 33.24496094 81.16748047 32.72167969 C88.46571043 25.97902433 96.22875925 19.33126785 106.55029297 18.94824219 C107.21029297 18.91085938 107.87029297 18.87347656 108.55029297 18.83496094 C111.54281984 19.47204185 112.65143479 20.90584354 114.55029297 23.26074219 C115.78076172 25.99511719 115.78076172 25.99511719 116.73779297 29.01074219 C117.06134766 29.99558594 117.38490234 30.98042969 117.71826172 31.99511719 C119.41386208 38.65014959 119.70125002 45.21063535 119.68310547 52.03808594 C119.68406219 52.848871 119.68501892 53.65965607 119.68600464 54.49501038 C119.68668076 56.19841592 119.6848664 57.90182412 119.68066406 59.60522461 C119.67531476 62.1877227 119.68062488 64.77004634 119.68701172 67.35253906 C119.6863507 69.01855507 119.68506905 70.68457096 119.68310547 72.35058594 C119.6851297 73.11024155 119.68715393 73.86989716 119.6892395 74.65257263 C119.65495842 82.63825836 118.7681589 90.1794529 116.67529297 97.88574219 C116.34787109 99.11550781 116.02044922 100.34527344 115.68310547 101.61230469 C114.53122676 105.32214853 113.14190466 108.72281678 111.55029297 112.26074219 C110.89029297 112.26074219 110.23029297 112.26074219 109.55029297 112.26074219 C109.48841797 112.96199219 109.42654297 113.66324219 109.36279297 114.38574219 C107.5031066 120.96617089 102.32986497 124.38056878 96.92919922 128.06152344 C91.83875444 130.62764256 86.32598799 130.4242998 80.73779297 130.38574219 C80.03219238 130.3823584 79.3265918 130.37897461 78.59960938 130.37548828 C71.20461766 130.30237155 64.54214462 129.84468736 57.55029297 127.26074219 C54.40593748 126.33593175 51.26143662 125.4385281 48.08154297 124.64355469 C41.82413743 123.0432412 36.00614569 120.91920455 30.08154297 118.34667969 C27.50144056 117.19811548 27.50144056 117.19811548 24.55029297 116.26074219 C24.55029297 115.60074219 24.55029297 114.94074219 24.55029297 114.26074219 C23.83873047 114.15375 23.12716797 114.04675781 22.39404297 113.93652344 C15.68529284 112.34227375 8.49529828 108.03523007 3.55029297 103.26074219 C3.55029297 102.60074219 3.55029297 101.94074219 3.55029297 101.26074219 C2.89029297 101.26074219 2.23029297 101.26074219 1.55029297 101.26074219 C0.79725135 95.36191616 2.25853199 92.24391211 5.71044922 87.45996094 C8.64641605 83.95051439 11.99819857 81.12423479 15.55029297 78.26074219 C16.88687987 77.11870574 18.22043102 75.97310262 19.55029297 74.82324219 C20.54029297 73.97761719 21.53029297 73.13199219 22.55029297 72.26074219 C22.03363137 68.43744633 21.29114634 66.88739334 18.55029297 64.26074219 C18.41880859 63.63425781 18.28732422 63.00777344 18.15185547 62.36230469 C17.04782872 58.50538009 13.71258785 56.51316148 10.55029297 54.26074219 C4.5762985 51.09803924 -1.89283112 49.77883661 -8.44970703 48.26074219 C-8.77970703 49.91074219 -9.10970703 51.56074219 -9.44970703 53.26074219 C-10.10970703 53.26074219 -10.76970703 53.26074219 -11.44970703 53.26074219 C-11.77970703 54.25074219 -12.10970703 55.24074219 -12.44970703 56.26074219 C-13.04783203 57.10636719 -13.64595703 57.95199219 -14.26220703 58.82324219 C-20.22227971 67.56900101 -23.12428937 78.87830382 -24.44970703 89.26074219 C-24.77970703 89.59074219 -25.10970703 89.92074219 -25.44970703 90.26074219 C-25.83296342 93.9073698 -26.16947867 97.55109246 -26.43603516 101.20800781 C-27.06852858 107.99751689 -28.8619674 113.67300256 -33.76220703 118.57324219 C-45.6945302 126.06563115 -58.69227265 123.85820457 -71.79345703 120.88867188 C-74.016274 120.36120834 -76.23346233 119.81507193 -78.44970703 119.26074219 C-79.40619141 119.03386719 -80.36267578 118.80699219 -81.34814453 118.57324219 C-89.10197602 116.51242319 -96.26297932 112.75828301 -103.44970703 109.26074219 C-103.44970703 108.60074219 -103.44970703 107.94074219 -103.44970703 107.26074219 C-104.04783203 106.99261719 -104.64595703 106.72449219 -105.26220703 106.44824219 C-109.43335464 104.18390491 -111.00964949 101.75492176 -112.44970703 97.26074219 C-112.69361385 94.37923838 -112.82956054 91.64069425 -112.82470703 88.76074219 C-112.82599609 87.97135254 -112.82728516 87.18196289 -112.82861328 86.36865234 C-112.69992988 79.14337205 -111.11600899 72.99791589 -108.44970703 66.26074219 C-107.78970703 66.26074219 -107.12970703 66.26074219 -106.44970703 66.26074219 C-106.34013672 65.57367188 -106.23056641 64.88660156 -106.11767578 64.17871094 C-105.95912109 63.27765625 -105.80056641 62.37660156 -105.63720703 61.44824219 C-105.48638672 60.55492187 -105.33556641 59.66160156 -105.18017578 58.74121094 C-104.38924279 56.05542245 -103.66270741 54.93860897 -101.44970703 53.26074219 C-100.78970703 53.26074219 -100.12970703 53.26074219 -99.44970703 53.26074219 C-99.11970703 51.94074219 -98.78970703 50.62074219 -98.44970703 49.26074219 C-97.78970703 49.26074219 -97.12970703 49.26074219 -96.44970703 49.26074219 C-96.28470703 48.41511719 -96.11970703 47.56949219 -95.94970703 46.69824219 C-94.14407413 42.56033346 -91.9102594 40.80170378 -88.47314453 37.99121094 C-86.66451968 36.44445262 -85.2329523 34.93275133 -83.76220703 33.07324219 C-76.82856632 24.64043591 -63.50704118 14.96423664 -52.82470703 12.38574219 C-52.04095703 12.34449219 -51.25720703 12.30324219 -50.44970703 12.26074219 C-50.44970703 11.60074219 -50.44970703 10.94074219 -50.44970703 10.26074219 C-42.30912557 7.0183072 -34.07162102 4.67491871 -25.53710938 2.73535156 C-24.11128471 2.41116406 -22.68971867 2.06780502 -21.27246094 1.70800781 C-14.21113966 0.05894795 -7.21705812 -0.04492303 0 0 Z " fill="#4D6397" transform="translate(250.44970703125,41.7392578125)"/>
<path d="M0 0 C0.99 0 1.98 0 3 0 C3.56310022 1.54144753 4.12542394 3.08317872 4.6875 4.625 C5.05746094 5.63046875 5.42742187 6.6359375 5.80859375 7.671875 C6.60602016 9.89943991 7.3689406 12.1396457 8.09765625 14.390625 C13.2363852 29.92874779 21.87031392 44.52618714 36.4453125 52.74609375 C37.70988281 53.36677734 37.70988281 53.36677734 39 54 C39.98226562 54.51304687 40.96453125 55.02609375 41.9765625 55.5546875 C47.44548088 57.85245938 53.40461282 58.10296128 59.25 58.6875 C60.41402344 58.81705078 61.57804687 58.94660156 62.77734375 59.08007812 C81.835741 61.0968962 98.60426368 59.21224936 116.625 52.6875 C122.63819072 51.46259078 128.22511933 51.25989218 133.56640625 54.609375 C142.68213346 62.35849401 145.01198282 70.75099415 148 82 C148.51433594 83.57394531 148.51433594 83.57394531 149.0390625 85.1796875 C152.49303892 98.91134986 154.67236018 117.48840963 148.25 130.5625 C145.71424045 133.30957284 143.27050105 135.19078665 140 137 C139.01 137 138.02 137 137 137 C137 137.66 137 138.32 137 139 C122.94238753 143.09370033 110.40586695 143.46864913 96 141 C95.09378906 140.8659375 94.18757813 140.731875 93.25390625 140.59375 C86.38374543 139.45055524 80.34346567 136.7981202 74 134 C71.7519745 133.05777519 69.50203272 132.12010649 67.25 131.1875 C65.5 130.45833333 63.75 129.72916667 62 129 C62 128.34 62 127.68 62 127 C61.29875 126.9175 60.5975 126.835 59.875 126.75 C56.25910737 125.80672366 54.02835014 124.19703834 51 122 C50.28714844 121.49597656 49.57429688 120.99195313 48.83984375 120.47265625 C44.55787583 117.38389985 44.55787583 117.38389985 43 116 C43 115.34 43 114.68 43 114 C42.13375 113.61714844 42.13375 113.61714844 41.25 113.2265625 C29.45883552 106.7987402 17.5808186 89.0183418 12 77 C12 76.01 12 75.02 12 74 C11.34 74 10.68 74 10 74 C9.505 71.03 9.505 71.03 9 68 C8.34 68 7.68 68 7 68 C6.70996094 67.00419922 6.70996094 67.00419922 6.4140625 65.98828125 C6.02347656 64.66376953 6.02347656 64.66376953 5.625 63.3125 C5.36976562 62.44238281 5.11453125 61.57226562 4.8515625 60.67578125 C4.0383229 58.00548701 4.0383229 58.00548701 2.9921875 55.49609375 C-2.01017571 42.91140834 -4.01265103 29.32837143 -4.25 15.875 C-4.27143066 15.205896 -4.29286133 14.53679199 -4.31494141 13.84741211 C-4.34874273 8.77032872 -3.23968914 5.4454436 -1 1 C-0.67 0.67 -0.34 0.34 0 0 Z " fill="#279E72" transform="translate(66,278)"/>
<path d="M0 0 C3.53361578 2.21667789 5.3930848 4.3069981 7.74609375 7.72265625 C8.34421875 8.30015625 8.94234375 8.87765625 9.55859375 9.47265625 C10.74609375 10.72265625 10.74609375 10.72265625 10.74609375 12.72265625 C11.40609375 12.72265625 12.06609375 12.72265625 12.74609375 12.72265625 C17.31142473 16.34842043 18.69399781 22.48032713 20.74609375 27.72265625 C21.26213372 28.97302274 21.77908346 30.22301409 22.296875 31.47265625 C28.05182761 45.64731992 29.98319997 58.86814265 30.05859375 74.16015625 C30.0642334 75.24989746 30.06987305 76.33963867 30.07568359 77.46240234 C30.01561233 84.12216697 29.2955669 90.25254953 27.74609375 96.72265625 C27.59487061 97.41528564 27.44364746 98.10791504 27.2878418 98.8215332 C25.34377452 107.69331197 22.80652217 115.57866307 18.74609375 123.72265625 C17.63611481 126.11580233 16.5320293 128.51168992 15.43359375 130.91015625 C14.53808015 132.84780405 13.64236362 134.78535815 12.74609375 136.72265625 C12.08609375 136.72265625 11.42609375 136.72265625 10.74609375 136.72265625 C10.41609375 138.37265625 10.08609375 140.02265625 9.74609375 141.72265625 C9.08609375 141.72265625 8.42609375 141.72265625 7.74609375 141.72265625 C7.52953125 142.40972656 7.31296875 143.09679687 7.08984375 143.8046875 C5.35519947 147.57148773 2.97150022 150.31466962 0.24609375 153.41015625 C-0.28491943 154.02157471 -0.81593262 154.63299316 -1.36303711 155.26293945 C-6.09655651 160.65865739 -11.09091974 165.73601463 -16.25390625 170.72265625 C-16.92679687 171.44582031 -16.92679687 171.44582031 -17.61328125 172.18359375 C-25.20157399 179.30213504 -36.11609786 187.8835126 -46.75390625 187.97265625 C-48.25488536 187.90936195 -49.75566447 187.83318228 -51.25390625 187.72265625 C-50.71033184 183.81242746 -48.98363373 182.22013471 -46.12890625 179.59765625 C-32.92535547 166.72784451 -24.23682912 149.86906142 -23.94140625 131.41015625 C-23.99406457 118.32669919 -28.10614744 107.73212154 -34.06640625 96.22265625 C-35.25390625 93.72265625 -35.25390625 93.72265625 -35.25390625 90.72265625 C-35.91390625 90.72265625 -36.57390625 90.72265625 -37.25390625 90.72265625 C-37.74310547 89.80033203 -37.74310547 89.80033203 -38.2421875 88.859375 C-38.67917969 88.05113281 -39.11617188 87.24289062 -39.56640625 86.41015625 C-39.99566406 85.60964844 -40.42492187 84.80914062 -40.8671875 83.984375 C-42.17641302 81.84904661 -43.44385707 80.42757631 -45.25390625 78.72265625 C-46.99816918 76.71533742 -48.7192499 74.68976711 -50.4375 72.66015625 C-52.24679606 70.73024045 -54.11414997 69.26779466 -56.25390625 67.72265625 C-68.83762936 55.80123436 -68.83762936 55.80123436 -69.56640625 46.91015625 C-69.29062344 38.24733146 -64.61239322 29.97530799 -58.484375 23.99609375 C-57.36299219 23.04328483 -56.22449036 22.10987268 -55.0625 21.20703125 C-53.1018383 19.65189884 -53.1018383 19.65189884 -50.94140625 17.3671875 C-48.05667577 14.52857916 -45.03751191 12.0976479 -41.81640625 9.66015625 C-41.26919922 9.23927734 -40.72199219 8.81839844 -40.15820312 8.38476562 C-30.12024588 0.72265625 -30.12024588 0.72265625 -26.25390625 0.72265625 C-26.25390625 0.06265625 -26.25390625 -0.59734375 -26.25390625 -1.27734375 C-15.90264965 -4.77636007 -9.88958913 -5.22259201 0 0 Z " fill="#279E72" transform="translate(415.25390625,201.27734375)"/>
<path d="M0 0 C2.04701345 0.01072501 4.09314969 0.00004629 6.14013672 -0.01269531 C13.52016152 -0.02029046 20.37720346 0.50861564 27.55029297 2.26074219 C30.33459887 2.75451072 33.12087515 3.23066016 35.90966797 3.69824219 C38.89068978 4.33325275 41.67266925 5.2576011 44.55029297 6.26074219 C45.60990234 6.61394531 46.66951172 6.96714844 47.76123047 7.33105469 C50.69091797 8.30761719 53.62060547 9.28417969 56.55029297 10.26074219 C56.55029297 10.92074219 56.55029297 11.58074219 56.55029297 12.26074219 C57.27603516 12.35226563 58.00177734 12.44378906 58.74951172 12.53808594 C62.01683528 13.38111921 63.76699927 14.69236676 66.36279297 16.82324219 C67.15298828 17.46390625 67.94318359 18.10457031 68.75732422 18.76464844 C69.64484375 19.50521484 69.64484375 19.50521484 70.55029297 20.26074219 C70.22029297 21.25074219 69.89029297 22.24074219 69.55029297 23.26074219 C64.60029297 23.26074219 59.65029297 23.26074219 54.55029297 23.26074219 C54.55029297 22.60074219 54.55029297 21.94074219 54.55029297 21.26074219 C32.40128108 21.71883964 13.56080012 24.3670336 -2.90673828 40.42871094 C-5.78370494 43.63270606 -7.45617931 46.51685735 -8.80126953 50.58105469 C-9.44970703 52.26074219 -9.44970703 52.26074219 -11.44970703 53.26074219 C-11.77970703 54.25074219 -12.10970703 55.24074219 -12.44970703 56.26074219 C-13.04783203 57.10636719 -13.64595703 57.95199219 -14.26220703 58.82324219 C-20.22227971 67.56900101 -23.12428937 78.87830382 -24.44970703 89.26074219 C-24.77970703 89.59074219 -25.10970703 89.92074219 -25.44970703 90.26074219 C-25.83296342 93.9073698 -26.16947867 97.55109246 -26.43603516 101.20800781 C-27.06852858 107.99751689 -28.8619674 113.67300256 -33.76220703 118.57324219 C-45.6945302 126.06563115 -58.69227265 123.85820457 -71.79345703 120.88867188 C-74.016274 120.36120834 -76.23346233 119.81507193 -78.44970703 119.26074219 C-79.40619141 119.03386719 -80.36267578 118.80699219 -81.34814453 118.57324219 C-89.10197602 116.51242319 -96.26297932 112.75828301 -103.44970703 109.26074219 C-103.44970703 108.60074219 -103.44970703 107.94074219 -103.44970703 107.26074219 C-104.04783203 106.99261719 -104.64595703 106.72449219 -105.26220703 106.44824219 C-109.43335464 104.18390491 -111.00964949 101.75492176 -112.44970703 97.26074219 C-112.69361385 94.37923838 -112.82956054 91.64069425 -112.82470703 88.76074219 C-112.82599609 87.97135254 -112.82728516 87.18196289 -112.82861328 86.36865234 C-112.69992988 79.14337205 -111.11600899 72.99791589 -108.44970703 66.26074219 C-107.78970703 66.26074219 -107.12970703 66.26074219 -106.44970703 66.26074219 C-106.34013672 65.57367188 -106.23056641 64.88660156 -106.11767578 64.17871094 C-105.95912109 63.27765625 -105.80056641 62.37660156 -105.63720703 61.44824219 C-105.48638672 60.55492187 -105.33556641 59.66160156 -105.18017578 58.74121094 C-104.38924279 56.05542245 -103.66270741 54.93860897 -101.44970703 53.26074219 C-100.78970703 53.26074219 -100.12970703 53.26074219 -99.44970703 53.26074219 C-99.11970703 51.94074219 -98.78970703 50.62074219 -98.44970703 49.26074219 C-97.78970703 49.26074219 -97.12970703 49.26074219 -96.44970703 49.26074219 C-96.28470703 48.41511719 -96.11970703 47.56949219 -95.94970703 46.69824219 C-94.14407413 42.56033346 -91.9102594 40.80170378 -88.47314453 37.99121094 C-86.66451968 36.44445262 -85.2329523 34.93275133 -83.76220703 33.07324219 C-76.82856632 24.64043591 -63.50704118 14.96423664 -52.82470703 12.38574219 C-52.04095703 12.34449219 -51.25720703 12.30324219 -50.44970703 12.26074219 C-50.44970703 11.60074219 -50.44970703 10.94074219 -50.44970703 10.26074219 C-42.30912557 7.0183072 -34.07162102 4.67491871 -25.53710938 2.73535156 C-24.11128471 2.41116406 -22.68971867 2.06780502 -21.27246094 1.70800781 C-14.21113966 0.05894795 -7.21705812 -0.04492303 0 0 Z " fill="#279E72" transform="translate(250.44970703125,41.7392578125)"/>
<path d="M0 0 C0.99 0 1.98 0 3 0 C3.33 2.31 3.66 4.62 4 7 C4.66 7 5.32 7 6 7 C7.48046875 8.57421875 7.48046875 8.57421875 9.1875 10.6875 C11.58221885 13.5299709 13.85859283 15.79110551 16.9375 17.875 C17.948125 18.57625 18.95875 19.2775 20 20 C20 20.66 20 21.32 20 22 C20.57878906 22.24878906 21.15757813 22.49757813 21.75390625 22.75390625 C29.71710868 27.17175247 33.91631479 35.81269624 37 44 C37.37125 44.92683594 37.7425 45.85367188 38.125 46.80859375 C39.20850849 50.7604975 39.22069779 54.30416334 39.125 58.375 C39.11597656 59.11105469 39.10695312 59.84710938 39.09765625 60.60546875 C39.07430144 62.4037888 39.03843836 64.20193911 39 66 C38.34 66 37.68 66 37 66 C36.90912109 66.93972656 36.90912109 66.93972656 36.81640625 67.8984375 C36.73261719 68.71570313 36.64882812 69.53296875 36.5625 70.375 C36.48128906 71.18710938 36.40007812 71.99921875 36.31640625 72.8359375 C36 75 36 75 35 77 C25.67920768 78.05918095 16.5951232 73.06796486 9.1640625 67.78515625 C1.68300824 61.61396167 -3.07272558 55.21848851 -6 46 C-6.4125 45.05125 -6.825 44.1025 -7.25 43.125 C-9.18195783 35.07517572 -8.22762752 26.88119254 -6 19 C-5.690625 17.88625 -5.38125 16.7725 -5.0625 15.625 C-4.711875 14.42875 -4.36125 13.2325 -4 12 C-3.22373407 9.08700208 -2.45021696 6.17336399 -1.68359375 3.2578125 C-1 1 -1 1 0 0 Z " fill="#269B71" transform="translate(84,81)"/>
<path d="M0 0 C0.82628906 0.53367188 1.65257813 1.06734375 2.50390625 1.6171875 C7.81040503 5.28142458 7.81040503 5.28142458 8.70703125 8.6796875 C8.85205078 9.82824219 8.85205078 9.82824219 9 11 C7.3790787 12.17232685 5.75313167 13.3377077 4.125 14.5 C3.22007813 15.1496875 2.31515625 15.799375 1.3828125 16.46875 C-1 18 -1 18 -3 18 C-3 18.66 -3 19.32 -3 20 C-16.4889332 27.02042677 -30.2750478 30.46833915 -45.26171875 26.03515625 C-47.87839719 25.09368808 -50.44654497 24.10018603 -53 23 C-53 22.34 -53 21.68 -53 21 C-54.65 20.67 -56.3 20.34 -58 20 C-58 19.34 -58 18.68 -58 18 C-58.7425 17.7525 -59.485 17.505 -60.25 17.25 C-63.27257349 15.87610296 -64.93977162 14.59436166 -67 12 C-67 8 -67 8 -65.41796875 6.2890625 C-44.58149847 -9.25618503 -22.80630105 -14.95392579 0 0 Z " fill="#4B6295" transform="translate(105,161)"/>
<path d="M0 0 C20.46 0 40.92 0 62 0 C60.87505071 5.62474645 60.87505071 5.62474645 59.03125 8.6796875 C58.62890137 9.35459229 58.22655273 10.02949707 57.81201172 10.72485352 C57.37904785 11.43440186 56.94608398 12.1439502 56.5 12.875 C55.83701904 13.98089478 55.83701904 13.98089478 55.16064453 15.10913086 C54.24077456 16.64186543 53.31771915 18.17269245 52.39160156 19.70166016 C51.03237475 21.94653055 49.6825116 24.19674019 48.3359375 26.44921875 C46.23045648 29.97008729 44.11742482 33.4863023 42 37 C27.52463648 33.60303308 16.0127428 25.90362257 7 14 C4.69 9.38 2.38 4.76 0 0 Z " fill="#2D427C" transform="translate(195,259)"/>
<path d="M0 0 C13.53 0 27.06 0 41 0 C46.21956458 13.04891145 44.64871998 26.99513791 40 40 C37.73554772 44.96215436 35.02027484 49.46958775 32 54 C28.03973566 52.67991189 27.67225462 51.16003835 25.6640625 47.55078125 C25.01759766 46.402146 24.37113281 45.25351074 23.70507812 44.07006836 C23.01157343 42.81762603 22.31821714 41.56510151 21.625 40.3125 C20.19388425 37.75568452 18.75694443 35.20215653 17.3203125 32.6484375 C16.95951599 32.00496872 16.59871948 31.36149994 16.22698975 30.6985321 C12.23675666 23.60014511 8.04979749 16.61971338 3.81103516 9.66723633 C3.30620605 8.82700928 2.80137695 7.98678223 2.28125 7.12109375 C1.83845703 6.3933374 1.39566406 5.66558105 0.93945312 4.91577148 C0 3 0 3 0 0 Z " fill="#2D427C" transform="translate(266,221)"/>
<path d="M0 0 C0.99 0 1.98 0 3 0 C3.92619141 1.68802734 3.92619141 1.68802734 4.87109375 3.41015625 C5.72608662 4.96119992 6.58159338 6.51196038 7.4375 8.0625 C7.88327393 8.87219238 8.32904785 9.68188477 8.78833008 10.51611328 C11.01318031 14.52924528 13.27597055 18.49985721 15.703125 22.39453125 C16.12150635 23.06798584 16.5398877 23.74144043 16.97094727 24.43530273 C17.76790526 25.70598932 18.575359 26.970167 19.39428711 28.22680664 C22.02030273 32.41934181 22.02030273 32.41934181 21.921875 35.234375 C17.58839287 43.534095 5.69804071 48.64568625 -2.6875 51.3125 C-11.21479777 53.71610089 -20.2930671 55.47646398 -29 53 C-27.36615385 46.74922085 -23.96986701 41.55634083 -20.6875 36.0625 C-19.42700424 33.92920091 -18.167928 31.79506253 -16.91015625 29.66015625 C-16.26578613 28.56719238 -15.62141602 27.47422852 -14.95751953 26.34814453 C-11.79015168 20.93067351 -8.70418806 15.46793851 -5.625 10 C-5.05998779 8.99718994 -4.49497559 7.99437988 -3.9128418 6.96118164 C-2.60715588 4.64157294 -1.30275796 2.321254 0 0 Z " fill="#2D427C" transform="translate(271,244)"/>
<path d="M0 0 C-1.27447124 4.18068101 -2.84681318 7.76744927 -5.0546875 11.53515625 C-5.6643335 12.58268066 -6.27397949 13.63020508 -6.90209961 14.70947266 C-7.55315674 15.81597168 -8.20421387 16.9224707 -8.875 18.0625 C-9.88644187 19.79748636 -10.8978765 21.53247711 -11.90849304 23.26794434 C-12.59326914 24.44323828 -13.27874785 25.61812313 -13.96492004 26.79260254 C-17.32724637 32.54839595 -20.63695081 38.33363231 -23.9375 44.125 C-24.45103027 45.02484619 -24.96456055 45.92469238 -25.49365234 46.85180664 C-26.66299228 48.90088742 -27.83179409 50.95027258 -29 53 C-33.11173788 51.62942071 -33.59033881 49.7018538 -35.6875 45.953125 C-36.03127686 45.34490906 -36.37505371 44.73669312 -36.72924805 44.11004639 C-37.82819653 42.16143983 -38.91429041 40.20600825 -40 38.25 C-40.73091262 36.94743472 -41.46267407 35.64534536 -42.1953125 34.34375 C-43.54840145 31.93944456 -44.8953604 29.53210931 -46.23828125 27.12207031 C-47.36463421 25.12597807 -48.53702664 23.15474353 -49.76611328 21.22021484 C-51 19 -51 19 -50.4296875 16.8984375 C-42.86701109 6.85619505 -29.38528893 1.70888791 -17.484375 -0.5390625 C-4.5106383 -2.25531915 -4.5106383 -2.25531915 0 0 Z " fill="#2D427C" transform="translate(259,180)"/>
<path d="M0 0 C0.3810791 0.69222656 0.7621582 1.38445312 1.15478516 2.09765625 C2.97516255 5.40011562 4.79902889 8.70063138 6.625 12 C6.9575882 12.60125702 7.29017639 13.20251404 7.63284302 13.82199097 C13.19277167 23.86207082 18.90762446 33.79802796 24.78173828 43.65820312 C25.33716309 44.59728516 25.89258789 45.53636719 26.46484375 46.50390625 C26.955896 47.32705322 27.44694824 48.1502002 27.95288086 48.99829102 C29 51 29 51 29 53 C15.47 53 1.94 53 -12 53 C-17.5146644 39.21333901 -14.86563721 24.39864844 -9.43359375 11.00390625 C-4.18205462 0 -4.18205462 0 0 0 Z " fill="#2D427C" transform="translate(206,202)"/>
<path d="M0 0 C12.39942049 2.03269188 21.21533557 8.23082881 30 17 C30.57621094 17.56460938 31.15242188 18.12921875 31.74609375 18.7109375 C36.71383717 24.00126166 38.52588965 29.05177929 42 36 C11.31 36.495 11.31 36.495 -20 37 C-19.05877694 33.23510774 -17.90190178 30.77070774 -16.015625 27.421875 C-15.40976563 26.34292969 -14.80390625 25.26398438 -14.1796875 24.15234375 C-13.54289063 23.02957031 -12.90609375 21.90679687 -12.25 20.75 C-11.62867188 19.64269531 -11.00734375 18.53539062 -10.3671875 17.39453125 C-7.04664554 11.50302115 -3.64162481 5.69872584 0 0 Z " fill="#2D427C" transform="translate(264,181)"/>
<path d="M0 0 C0.33 0 0.66 0 1 0 C1.25838747 5.94291192 0.34095505 11.21899378 -1 17 C-1.15017578 17.64839844 -1.30035156 18.29679687 -1.45507812 18.96484375 C-1.96039524 21.1248267 -2.47789511 23.28151675 -3 25.4375 C-3.1659668 26.13609131 -3.33193359 26.83468262 -3.50292969 27.55444336 C-4.31958422 30.84713346 -5.09727211 33.14590816 -7 36 C-8.27288787 33.45422426 -7.85777111 32.4378268 -7.29296875 29.67578125 C-7.11830078 28.81146484 -6.94363281 27.94714844 -6.76367188 27.05664062 C-6.57353516 26.15107422 -6.38339844 25.24550781 -6.1875 24.3125 C-6.00896484 23.42626953 -5.83042969 22.54003906 -5.64648438 21.62695312 C-4.8449049 17.71744455 -4.00020726 13.85796434 -2.86328125 10.03125 C-1.87160817 7.07447323 -1.87160817 7.07447323 -2 4.1875 C-2 2 -2 2 0 0 Z " fill="#258F76" transform="translate(444,281)"/>
<path d="M0 0 C9.57 0 19.14 0 29 0 C29 0.66 29 1.32 29 2 C24.9122638 3.14152811 20.96658602 3.14699958 16.75 3.125 C15.66138672 3.13080078 15.66138672 3.13080078 14.55078125 3.13671875 C9.61925173 3.12792814 4.88230194 2.69589371 0 2 C0 1.34 0 0.68 0 0 Z " fill="#2AA886" transform="translate(238,42)"/>
<path d="M0 0 C0 3 0 3 -1.73046875 4.8046875 C-2.54128906 5.48789063 -3.35210937 6.17109375 -4.1875 6.875 C-8.68105981 10.7754357 -12.93466476 14.83810638 -17.125 19.0625 C-17.70531982 19.64692871 -18.28563965 20.23135742 -18.88354492 20.83349609 C-20.25774901 22.22029998 -21.62918426 23.60984673 -23 25 C-23.66 24.67 -24.32 24.34 -25 24 C-22.3953439 19.62417775 -19.65335015 16.64377517 -15.71484375 13.4296875 C-13.82402182 11.90329989 -13.82402182 11.90329989 -11.625 9.5625 C-8.00958759 6.03316884 -4.0261549 3.04373802 0 0 Z " fill="#1F857D" transform="translate(376,209)"/>
<path d="M0 0 C7.02402808 0.14944741 10.81743147 3.49903912 16 8 C15.67 8.99 15.34 9.98 15 11 C10.05 11 5.1 11 0 11 C0 10.67 0 10.34 0 10 C3.96 10 7.92 10 12 10 C8.86888657 6.86888657 7.46924593 5.4856481 3.75 3.75 C3.04359375 3.41484375 2.3371875 3.0796875 1.609375 2.734375 C1.07828125 2.49203125 0.5471875 2.2496875 0 2 C0 1.34 0 0.68 0 0 Z " fill="#268B7D" transform="translate(305,54)"/>
<path d="M0 0 C0.97596763 3.06440186 0.9631093 4.8707193 0.0625 7.9375 C-1.7771985 15.43302835 -1.73923534 23.48650335 0 31 C-2 30 -2 30 -3 27 C-3.48811955 17.59431177 -3.89111464 8.75500794 0 0 Z " fill="#238D6B" transform="translate(141,112)"/>
<path d="M0 0 C13.53 0 27.06 0 41 0 C41 0.33 41 0.66 41 1 C27.47 1 13.94 1 0 1 C0 0.67 0 0.34 0 0 Z " fill="#2F417D" transform="translate(194,256)"/>
<path d="M0 0 C12.54 0 25.08 0 38 0 C38 0.33 38 0.66 38 1 C25.46 1 12.92 1 0 1 C0 0.67 0 0.34 0 0 Z " fill="#2D417C" transform="translate(267,219)"/>
<path d="M0 0 C0.33 0.66 0.66 1.32 1 2 C0.67 2.99 0.34 3.98 0 5 C-0.66 5 -1.32 5 -2 5 C-2.2475 5.7425 -2.495 6.485 -2.75 7.25 C-4.09147301 10.20124062 -5.60905526 11.84814974 -8 14 C-7.37606349 10.23880524 -5.65226285 7.81039958 -3.4375 4.75 C-2.79683594 3.85796875 -2.15617187 2.9659375 -1.49609375 2.046875 C-0.75552734 1.03367187 -0.75552734 1.03367187 0 0 Z " fill="#20906F" transform="translate(425,338)"/>
<path d="M0 0 C2.31 0 4.62 0 7 0 C7 0.99 7 1.98 7 3 C2.545 3.495 2.545 3.495 -2 4 C-1.34 2.68 -0.68 1.36 0 0 Z " fill="#32B88C" transform="translate(399,197)"/>
<path d="M0 0 C2.24497221 2.24497221 2.37003419 2.96027349 2.75 6 C2.84796875 6.70125 2.9459375 7.4025 3.046875 8.125 C3 10 3 10 1 12 C0.03929566 9.11788698 -0.10581883 7.30149956 -0.0625 4.3125 C-0.05347656 3.50425781 -0.04445313 2.69601563 -0.03515625 1.86328125 C-0.02355469 1.24839844 -0.01195312 0.63351563 0 0 Z " fill="#269175" transform="translate(439,240)"/>
<path d="M0 0 C0.33 0 0.66 0 1 0 C1 5.61 1 11.22 1 17 C0.67 17 0.34 17 0 17 C0 11.39 0 5.78 0 0 Z " fill="#4D6695" transform="translate(171,272)"/>
<path d="M0 0 C3 2 3 2 3.51171875 4.1640625 C3.56972656 4.97617188 3.62773438 5.78828125 3.6875 6.625 C3.75324219 7.44226563 3.81898437 8.25953125 3.88671875 9.1015625 C3.92410156 9.72804688 3.96148437 10.35453125 4 11 C3.53980469 10.07380859 3.53980469 10.07380859 3.0703125 9.12890625 C2.36187819 7.71979421 1.63023284 6.32209354 0.875 4.9375 C0 3 0 3 0 0 Z " fill="#2D9E7D" transform="translate(115,117)"/>
<path d="M0 0 C0.33 0 0.66 0 1 0 C1 5.28 1 10.56 1 16 C0.67 16 0.34 16 0 16 C0 10.72 0 5.44 0 0 Z " fill="#536892" transform="translate(371,95)"/>
<path d="M0 0 C5.28 0 10.56 0 16 0 C16 0.33 16 0.66 16 1 C10.72 1 5.44 1 0 1 C0 0.67 0 0.34 0 0 Z " fill="#2CAB8B" transform="translate(245,40)"/>
<path d="M0 0 C0.33 0 0.66 0 1 0 C1 3.96 1 7.92 1 12 C0.67 12 0.34 12 0 12 C0 8.04 0 4.08 0 0 Z " fill="#4E6695" transform="translate(350,395)"/>
<path d="M0 0 C0.33 0 0.66 0 1 0 C1 3.63 1 7.26 1 11 C0.67 11 0.34 11 0 11 C0 7.37 0 3.74 0 0 Z " fill="#4D6897" transform="translate(121,317)"/>
<path d="M0 0 C0.33 0 0.66 0 1 0 C1 3.63 1 7.26 1 11 C0.67 11 0.34 11 0 11 C0 7.37 0 3.74 0 0 Z " fill="#269671" transform="translate(136,126)"/>
<path d="M0 0 C0.33 0 0.66 0 1 0 C1 2.97 1 5.94 1 9 C0.67 9 0.34 9 0 9 C0 6.03 0 3.06 0 0 Z " fill="#2C417C" transform="translate(311,234)"/>
<path d="M0 0 C0.33 0 0.66 0 1 0 C1 1.98 1 3.96 1 6 C0.67 6 0.34 6 0 6 C0 4.02 0 2.04 0 0 Z " fill="#2D9C7C" transform="translate(218,378)"/>
<path d="M0 0 C0.33 0 0.66 0 1 0 C1 1.98 1 3.96 1 6 C0.67 6 0.34 6 0 6 C0 4.02 0 2.04 0 0 Z " fill="#2E427C" transform="translate(190,243)"/>
<path d="M0 0 C1.65 0 3.3 0 5 0 C5 0.33 5 0.66 5 1 C3.35 1 1.7 1 0 1 C0 0.67 0 0.34 0 0 Z " fill="#2D427C" transform="translate(256,298)"/>
<path d="M0 0 C0.33 0 0.66 0 1 0 C1 1.65 1 3.3 1 5 C0.67 5 0.34 5 0 5 C0 3.35 0 1.7 0 0 Z " fill="#2E427C" transform="translate(190,228)"/>
<path d="M0 0 C0.33 0 0.66 0 1 0 C1 1.65 1 3.3 1 5 C0.67 5 0.34 5 0 5 C0 3.35 0 1.7 0 0 Z " fill="#2D427C" transform="translate(310,226)"/>
<path d="M0 0 C1.65 0 3.3 0 5 0 C5 0.33 5 0.66 5 1 C3.35 1 1.7 1 0 1 C0 0.67 0 0.34 0 0 Z " fill="#4B6593" transform="translate(119,201)"/>
<path d="M0 0 C1.65 0 3.3 0 5 0 C5 0.33 5 0.66 5 1 C3.35 1 1.7 1 0 1 C0 0.67 0 0.34 0 0 Z " fill="#586EAA" transform="translate(77,189)"/>
<path d="M0 0 C1.65 0 3.3 0 5 0 C5 0.33 5 0.66 5 1 C3.35 1 1.7 1 0 1 C0 0.67 0 0.34 0 0 Z " fill="#5268A0" transform="translate(66,189)"/>
<path d="M0 0 C1.65 0 3.3 0 5 0 C5 0.33 5 0.66 5 1 C3.35 1 1.7 1 0 1 C0 0.67 0 0.34 0 0 Z " fill="#2D427C" transform="translate(239,178)"/>
<path d="M0 0 C1.65 0 3.3 0 5 0 C5 0.33 5 0.66 5 1 C3.35 1 1.7 1 0 1 C0 0.67 0 0.34 0 0 Z " fill="#496B94" transform="translate(243,91)"/>
<path d="M0 0 C1 4 1 4 1 4 Z " fill="#2E967B" transform="translate(218,396)"/>
<path d="M0 0 C1 4 1 4 1 4 Z " fill="#4F6898" transform="translate(350,308)"/>
<path d="M0 0 C4 1 4 1 4 1 Z " fill="#2D437B" transform="translate(262,297)"/>
<path d="M0 0 C1 4 1 4 1 4 Z " fill="#299478" transform="translate(446,273)"/>
<path d="M0 0 C1 4 1 4 1 4 Z " fill="#2D427C" transform="translate(310,246)"/>
<path d="M0 0 C0.99 0.33 1.98 0.66 3 1 C2.01 1 1.02 1 0 1 C0 0.67 0 0.34 0 0 Z " fill="#2C437C" transform="translate(290,193)"/>
<path d="M0 0 C1 4 1 4 1 4 Z " fill="#2A9276" transform="translate(224,144)"/>
<path d="M0 0 C1 4 1 4 1 4 Z " fill="#4E6195" transform="translate(370,123)"/>
<path d="" fill="#2B9A7A" transform="translate(0,0)"/>
<path d="" fill="#2A9B7D" transform="translate(0,0)"/>
<path d="M0 0 C3 1 3 1 3 1 Z " fill="#2AA16E" transform="translate(163,335)"/>
<path d="" fill="#2E927A" transform="translate(0,0)"/>
<path d="M0 0 C3 1 3 1 3 1 Z " fill="#2E427C" transform="translate(242,298)"/>
<path d="M0 0 C3 1 3 1 3 1 Z " fill="#2E437D" transform="translate(266,296)"/>
<path d="M0 0 C3 1 3 1 3 1 Z " fill="#2E437E" transform="translate(232,296)"/>
<path d="" fill="#2C427C" transform="translate(0,0)"/>
<path d="" fill="#2D437D" transform="translate(0,0)"/>
<path d="" fill="#2D437D" transform="translate(0,0)"/>
<path d="" fill="#2E427C" transform="translate(0,0)"/>
<path d="" fill="#31947F" transform="translate(0,0)"/>
<path d="" fill="#2D427B" transform="translate(0,0)"/>
<path d="" fill="#2D427C" transform="translate(0,0)"/>
<path d="M0 0 C3 1 3 1 3 1 Z " fill="#486794" transform="translate(134,201)"/>
<path d="M0 0 C3 1 3 1 3 1 Z " fill="#2E427C" transform="translate(270,181)"/>
<path d="M0 0 C3 1 3 1 3 1 Z " fill="#2D427C" transform="translate(267,180)"/>
<path d="M0 0 C3 1 3 1 3 1 Z " fill="#2E427C" transform="translate(235,179)"/>
<path d="M0 0 C3 1 3 1 3 1 Z " fill="#2B427C" transform="translate(250,177)"/>
<path d="M0 0 C3 1 3 1 3 1 Z " fill="#55629A" transform="translate(69,151)"/>
<path d="" fill="#2B9C7A" transform="translate(0,0)"/>
<path d="" fill="#52659B" transform="translate(0,0)"/>
<path d="" fill="#289874" transform="translate(0,0)"/>
<path d="" fill="#269576" transform="translate(0,0)"/>
<path d="" fill="#4D6598" transform="translate(0,0)"/>
<path d="M0 0 C3 1 3 1 3 1 Z " fill="#299C75" transform="translate(290,46)"/>
<path d="M0 0 C3 1 3 1 3 1 Z " fill="#269774" transform="translate(278,43)"/>
<path d="M0 0 C3 1 3 1 3 1 Z " fill="#299A75" transform="translate(224,43)"/>
<path d="M0 0 C2 1 2 1 2 1 Z " fill="#278F70" transform="translate(374,389)"/>
<path d="" fill="#299E7A" transform="translate(0,0)"/>
<path d="" fill="#4F6298" transform="translate(0,0)"/>
<path d="" fill="#5964A0" transform="translate(0,0)"/>
<path d="M0 0 C2 1 2 1 2 1 Z " fill="#27966F" transform="translate(174,332)"/>
<path d="" fill="#299E7B" transform="translate(0,0)"/>
<path d="M0 0 C2 1 2 1 2 1 Z " fill="#26977B" transform="translate(193,329)"/>
<path d="M0 0 C2 1 2 1 2 1 Z " fill="#24937A" transform="translate(183,329)"/>
<path d="M0 0 C2 1 2 1 2 1 Z " fill="#4F6598" transform="translate(148,307)"/>
<path d="M0 0 C2 1 2 1 2 1 Z " fill="#2D427D" transform="translate(235,297)"/>
<path d="" fill="#2D437B" transform="translate(0,0)"/>
<path d="M0 0 C2 1 2 1 2 1 Z " fill="#2D437C" transform="translate(270,295)"/>
<path d="M0 0 C2 1 2 1 2 1 Z " fill="#2D427C" transform="translate(229,295)"/>
<path d="M0 0 C2 1 2 1 2 1 Z " fill="#2C437E" transform="translate(272,294)"/>
<path d="" fill="#2F437D" transform="translate(0,0)"/>
<path d="" fill="#2D417C" transform="translate(0,0)"/>
<path d="M0 0 C2 1 2 1 2 1 Z " fill="#2E437C" transform="translate(227,294)"/>
<path d="" fill="#2D427C" transform="translate(0,0)"/>
<path d="" fill="#2D427C" transform="translate(0,0)"/>
<path d="M0 0 C2 1 2 1 2 1 Z " fill="#2E437B" transform="translate(219,290)"/>
<path d="M0 0 C2 1 2 1 2 1 Z " fill="#30447D" transform="translate(216,288)"/>
<path d="" fill="#2D437C" transform="translate(0,0)"/>
<path d="" fill="#2D427C" transform="translate(0,0)"/>
<path d="M0 0 C2 1 2 1 2 1 Z " fill="#2D417D" transform="translate(286,286)"/>
<path d="M0 0 C2 1 2 1 2 1 Z " fill="#2C437C" transform="translate(213,286)"/>
<path d="" fill="#2D427C" transform="translate(0,0)"/>
<path d="" fill="#2D437E" transform="translate(0,0)"/>
<path d="" fill="#2E437D" transform="translate(0,0)"/>
<path d="" fill="#2E437B" transform="translate(0,0)"/>
<path d="" fill="#2E437C" transform="translate(0,0)"/>
<path d="" fill="#30437D" transform="translate(0,0)"/>
<path d="" fill="#2F437C" transform="translate(0,0)"/>
<path d="" fill="#2E437D" transform="translate(0,0)"/>
<path d="" fill="#2C417C" transform="translate(0,0)"/>
<path d="" fill="#2D427C" transform="translate(0,0)"/>
<path d="" fill="#2E427C" transform="translate(0,0)"/>
<path d="" fill="#2D427C" transform="translate(0,0)"/>
<path d="" fill="#2E427C" transform="translate(0,0)"/>
<path d="" fill="#2D437C" transform="translate(0,0)"/>
<path d="" fill="#2D417C" transform="translate(0,0)"/>
<path d="" fill="#2D437C" transform="translate(0,0)"/>
<path d="" fill="#2E427C" transform="translate(0,0)"/>
<path d="" fill="#2E437C" transform="translate(0,0)"/>
<path d="" fill="#2D437D" transform="translate(0,0)"/>
<path d="" fill="#2D427C" transform="translate(0,0)"/>
<path d="" fill="#2D437F" transform="translate(0,0)"/>
<path d="" fill="#2D427C" transform="translate(0,0)"/>
<path d="" fill="#2D427B" transform="translate(0,0)"/>
<path d="" fill="#2D427C" transform="translate(0,0)"/>
<path d="" fill="#2D427C" transform="translate(0,0)"/>
<path d="" fill="#2D417C" transform="translate(0,0)"/>
<path d="" fill="#2D417C" transform="translate(0,0)"/>
<path d="" fill="#2D427C" transform="translate(0,0)"/>
<path d="" fill="#2E427C" transform="translate(0,0)"/>
<path d="" fill="#2D427C" transform="translate(0,0)"/>
<path d="" fill="#2D427C" transform="translate(0,0)"/>
<path d="" fill="#2C427B" transform="translate(0,0)"/>
<path d="" fill="#2D427D" transform="translate(0,0)"/>
<path d="" fill="#2E427C" transform="translate(0,0)"/>
<path d="" fill="#2E437B" transform="translate(0,0)"/>
<path d="" fill="#2D417C" transform="translate(0,0)"/>
<path d="" fill="#2D427D" transform="translate(0,0)"/>
<path d="" fill="#2E437E" transform="translate(0,0)"/>
<path d="" fill="#2D427C" transform="translate(0,0)"/>
<path d="" fill="#2D437C" transform="translate(0,0)"/>
<path d="" fill="#2D437B" transform="translate(0,0)"/>
<path d="" fill="#2E437D" transform="translate(0,0)"/>
<path d="" fill="#2C417C" transform="translate(0,0)"/>
<path d="" fill="#2E437D" transform="translate(0,0)"/>
<path d="" fill="#2D427C" transform="translate(0,0)"/>
<path d="" fill="#2E437D" transform="translate(0,0)"/>
<path d="" fill="#2D437D" transform="translate(0,0)"/>
<path d="" fill="#4E6B9A" transform="translate(0,0)"/>
<path d="" fill="#2D437C" transform="translate(0,0)"/>
<path d="" fill="#2E437B" transform="translate(0,0)"/>
<path d="" fill="#2D427C" transform="translate(0,0)"/>
<path d="" fill="#2E437E" transform="translate(0,0)"/>
<path d="" fill="#2D437D" transform="translate(0,0)"/>
<path d="" fill="#4D6196" transform="translate(0,0)"/>
<path d="" fill="#2D417D" transform="translate(0,0)"/>
<path d="" fill="#2D427C" transform="translate(0,0)"/>
<path d="" fill="#4E679A" transform="translate(0,0)"/>
<path d="" fill="#2E427C" transform="translate(0,0)"/>
<path d="" fill="#2E427D" transform="translate(0,0)"/>
<path d="" fill="#2C427C" transform="translate(0,0)"/>
<path d="" fill="#2D427C" transform="translate(0,0)"/>
<path d="" fill="#2D427B" transform="translate(0,0)"/>
<path d="" fill="#2E427D" transform="translate(0,0)"/>
<path d="" fill="#2C427C" transform="translate(0,0)"/>
<path d="" fill="#2E427C" transform="translate(0,0)"/>
<path d="" fill="#2C427B" transform="translate(0,0)"/>
<path d="" fill="#2D437D" transform="translate(0,0)"/>
<path d="" fill="#2D427D" transform="translate(0,0)"/>
<path d="" fill="#2F457D" transform="translate(0,0)"/>
<path d="" fill="#2E437C" transform="translate(0,0)"/>
<path d="" fill="#2D427C" transform="translate(0,0)"/>
<path d="" fill="#2E427C" transform="translate(0,0)"/>
<path d="" fill="#2C427C" transform="translate(0,0)"/>
<path d="" fill="#2E417C" transform="translate(0,0)"/>
<path d="" fill="#2D417C" transform="translate(0,0)"/>
<path d="" fill="#2E447D" transform="translate(0,0)"/>
<path d="" fill="#2D447D" transform="translate(0,0)"/>
<path d="" fill="#2D427C" transform="translate(0,0)"/>
<path d="" fill="#2D417C" transform="translate(0,0)"/>
<path d="" fill="#2D427C" transform="translate(0,0)"/>
<path d="" fill="#2E437C" transform="translate(0,0)"/>
<path d="" fill="#2E427C" transform="translate(0,0)"/>
<path d="" fill="#2D427C" transform="translate(0,0)"/>
<path d="" fill="#2E447D" transform="translate(0,0)"/>
<path d="" fill="#2C417B" transform="translate(0,0)"/>
<path d="" fill="#2E427D" transform="translate(0,0)"/>
<path d="" fill="#2E437C" transform="translate(0,0)"/>
<path d="" fill="#2C427C" transform="translate(0,0)"/>
<path d="" fill="#2C427C" transform="translate(0,0)"/>
<path d="" fill="#2E427D" transform="translate(0,0)"/>
<path d="" fill="#2E427C" transform="translate(0,0)"/>
<path d="" fill="#2D427C" transform="translate(0,0)"/>
<path d="" fill="#2D437C" transform="translate(0,0)"/>
<path d="" fill="#2D427D" transform="translate(0,0)"/>
<path d="" fill="#2E437C" transform="translate(0,0)"/>
<path d="" fill="#2E427C" transform="translate(0,0)"/>
<path d="" fill="#2E427C" transform="translate(0,0)"/>
<path d="" fill="#2D427C" transform="translate(0,0)"/>
<path d="" fill="#2E447D" transform="translate(0,0)"/>
<path d="" fill="#2D417C" transform="translate(0,0)"/>
<path d="" fill="#2D437C" transform="translate(0,0)"/>
<path d="" fill="#304380" transform="translate(0,0)"/>
<path d="" fill="#2D427B" transform="translate(0,0)"/>
<path d="" fill="#2D417C" transform="translate(0,0)"/>
<path d="" fill="#2E437C" transform="translate(0,0)"/>
<path d="" fill="#2D427C" transform="translate(0,0)"/>
<path d="" fill="#2D427C" transform="translate(0,0)"/>
<path d="" fill="#2D427D" transform="translate(0,0)"/>
<path d="M0 0 C2 1 2 1 2 1 Z " fill="#516796" transform="translate(105,204)"/>
<path d="" fill="#2D427D" transform="translate(0,0)"/>
<path d="M0 0 C2 1 2 1 2 1 Z " fill="#4E689A" transform="translate(110,203)"/>
<path d="" fill="#2D427D" transform="translate(0,0)"/>
<path d="" fill="#2E427D" transform="translate(0,0)"/>
<path d="" fill="#2C427C" transform="translate(0,0)"/>
<path d="" fill="#2C427C" transform="translate(0,0)"/>
<path d="" fill="#2D437C" transform="translate(0,0)"/>
<path d="" fill="#2D427C" transform="translate(0,0)"/>
<path d="" fill="#2D437B" transform="translate(0,0)"/>
<path d="" fill="#2D437D" transform="translate(0,0)"/>
<path d="" fill="#2D427C" transform="translate(0,0)"/>
<path d="" fill="#30437E" transform="translate(0,0)"/>
<path d="M0 0 C2 1 2 1 2 1 Z " fill="#2E437C" transform="translate(213,190)"/>
<path d="M0 0 C2 1 2 1 2 1 Z " fill="#30457C" transform="translate(285,189)"/>
<path d="" fill="#2D447B" transform="translate(0,0)"/>
<path d="" fill="#2D427C" transform="translate(0,0)"/>
<path d="M0 0 C2 1 2 1 2 1 Z " fill="#2D417C" transform="translate(217,187)"/>
<path d="M0 0 C2 1 2 1 2 1 Z " fill="#2D437C" transform="translate(279,185)"/>
<path d="" fill="#2D437C" transform="translate(0,0)"/>
<path d="" fill="#2D427C" transform="translate(0,0)"/>
<path d="M0 0 C2 1 2 1 2 1 Z " fill="#2E427C" transform="translate(277,184)"/>
<path d="M0 0 C2 1 2 1 2 1 Z " fill="#2D427C" transform="translate(222,184)"/>
<path d="M0 0 C2 1 2 1 2 1 Z " fill="#2C427C" transform="translate(275,183)"/>
<path d="M0 0 C2 1 2 1 2 1 Z " fill="#2D427C" transform="translate(224,183)"/>
<path d="M0 0 C2 1 2 1 2 1 Z " fill="#2D427C" transform="translate(273,182)"/>
<path d="M0 0 C2 1 2 1 2 1 Z " fill="#2D427B" transform="translate(227,182)"/>
<path d="M0 0 C2 1 2 1 2 1 Z " fill="#2D427C" transform="translate(229,181)"/>
<path d="M0 0 C2 1 2 1 2 1 Z " fill="#2D437C" transform="translate(232,180)"/>
<path d="M0 0 C2 1 2 1 2 1 Z " fill="#2C427C" transform="translate(264,179)"/>
<path d="M0 0 C2 1 2 1 2 1 Z " fill="#4B6594" transform="translate(321,172)"/>
<path d="M0 0 C2 1 2 1 2 1 Z " fill="#2FA171" transform="translate(164,159)"/>
<path d="M0 0 C2 1 2 1 2 1 Z " fill="#288B71" transform="translate(115,159)"/>
<path d="M0 0 C2 1 2 1 2 1 Z " fill="#289C75" transform="translate(156,156)"/>
<path d="M0 0 C2 1 2 1 2 1 Z " fill="#289775" transform="translate(105,156)"/>
<path d="" fill="#289176" transform="translate(0,0)"/>
<path d="M0 0 C2 1 2 1 2 1 Z " fill="#4F6799" transform="translate(85,151)"/>
<path d="" fill="#4E6692" transform="translate(0,0)"/>
<path d="" fill="#2D977F" transform="translate(0,0)"/>
<path d="" fill="#53639B" transform="translate(0,0)"/>
<path d="" fill="#289577" transform="translate(0,0)"/>
<path d="" fill="#249771" transform="translate(0,0)"/>
<path d="" fill="#2B9876" transform="translate(0,0)"/>
<path d="" fill="#299E76" transform="translate(0,0)"/>
<path d="" fill="#288D72" transform="translate(0,0)"/>
<path d="M0 0 C2 1 2 1 2 1 Z " fill="#2A9877" transform="translate(213,46)"/>
<path d="" fill="#6889D1" transform="translate(0,0)"/>
<path d="" fill="#627ABA" transform="translate(0,0)"/>
<path d="" fill="#2A9972" transform="translate(0,0)"/>
<path d="" fill="#536896" transform="translate(0,0)"/>
<path d="" fill="#289570" transform="translate(0,0)"/>
<path d="" fill="#4A6398" transform="translate(0,0)"/>
<path d="" fill="#2E8D6D" transform="translate(0,0)"/>
<path d="" fill="#2B937C" transform="translate(0,0)"/>
<path d="" fill="#32A07A" transform="translate(0,0)"/>
<path d="" fill="#2D9678" transform="translate(0,0)"/>
<path d="" fill="#526695" transform="translate(0,0)"/>
<path d="" fill="#2C9279" transform="translate(0,0)"/>
<path d="" fill="#28907A" transform="translate(0,0)"/>
<path d="" fill="#4D629A" transform="translate(0,0)"/>
<path d="" fill="#4D6197" transform="translate(0,0)"/>
<path d="" fill="#269274" transform="translate(0,0)"/>
<path d="" fill="#496594" transform="translate(0,0)"/>
<path d="" fill="#4A6196" transform="translate(0,0)"/>
<path d="" fill="#4E6396" transform="translate(0,0)"/>
<path d="" fill="#2BAB61" transform="translate(0,0)"/>
<path d="" fill="#4F649F" transform="translate(0,0)"/>
<path d="" fill="#309474" transform="translate(0,0)"/>
<path d="" fill="#2B8879" transform="translate(0,0)"/>
<path d="" fill="#506A9B" transform="translate(0,0)"/>
<path d="" fill="#2B9075" transform="translate(0,0)"/>
<path d="" fill="#278771" transform="translate(0,0)"/>
<path d="" fill="#299178" transform="translate(0,0)"/>
<path d="" fill="#288B6C" transform="translate(0,0)"/>
<path d="" fill="#26876B" transform="translate(0,0)"/>
<path d="" fill="#27866D" transform="translate(0,0)"/>
<path d="" fill="#586496" transform="translate(0,0)"/>
<path d="" fill="#2A8F7B" transform="translate(0,0)"/>
<path d="" fill="#50629A" transform="translate(0,0)"/>
<path d="" fill="#269170" transform="translate(0,0)"/>
<path d="" fill="#30977B" transform="translate(0,0)"/>
<path d="" fill="#278E6F" transform="translate(0,0)"/>
<path d="" fill="#359A7A" transform="translate(0,0)"/>
<path d="" fill="#289A74" transform="translate(0,0)"/>
<path d="" fill="#239673" transform="translate(0,0)"/>
<path d="" fill="#288D73" transform="translate(0,0)"/>
<path d="" fill="#309167" transform="translate(0,0)"/>
<path d="" fill="#2A9474" transform="translate(0,0)"/>
<path d="" fill="#2F9D7F" transform="translate(0,0)"/>
<path d="" fill="#269775" transform="translate(0,0)"/>
<path d="" fill="#229567" transform="translate(0,0)"/>
<path d="" fill="#2C9579" transform="translate(0,0)"/>
<path d="" fill="#5062A1" transform="translate(0,0)"/>
<path d="" fill="#2B9C7B" transform="translate(0,0)"/>
<path d="" fill="#56639F" transform="translate(0,0)"/>
<path d="" fill="#2EB972" transform="translate(0,0)"/>
<path d="" fill="#4A6990" transform="translate(0,0)"/>
<path d="" fill="#2B967A" transform="translate(0,0)"/>
<path d="" fill="#516899" transform="translate(0,0)"/>
<path d="" fill="#4D669A" transform="translate(0,0)"/>
<path d="" fill="#2B987B" transform="translate(0,0)"/>
<path d="" fill="#299674" transform="translate(0,0)"/>
<path d="" fill="#506C97" transform="translate(0,0)"/>
<path d="" fill="#526B97" transform="translate(0,0)"/>
<path d="" fill="#4E6A97" transform="translate(0,0)"/>
<path d="" fill="#359A85" transform="translate(0,0)"/>
<path d="" fill="#29A174" transform="translate(0,0)"/>
<path d="" fill="#496897" transform="translate(0,0)"/>
<path d="" fill="#56689D" transform="translate(0,0)"/>
<path d="" fill="#4C679F" transform="translate(0,0)"/>
<path d="" fill="#2FA07F" transform="translate(0,0)"/>
<path d="" fill="#2D8B76" transform="translate(0,0)"/>
<path d="" fill="#4D5F9B" transform="translate(0,0)"/>
<path d="" fill="#4B6494" transform="translate(0,0)"/>
<path d="" fill="#4E6B98" transform="translate(0,0)"/>
<path d="" fill="#2D437B" transform="translate(0,0)"/>
<path d="" fill="#516797" transform="translate(0,0)"/>
<path d="" fill="#2C417C" transform="translate(0,0)"/>
<path d="" fill="#2D8B78" transform="translate(0,0)"/>
<path d="" fill="#516998" transform="translate(0,0)"/>
<path d="" fill="#2C417B" transform="translate(0,0)"/>
<path d="" fill="#348A76" transform="translate(0,0)"/>
<path d="" fill="#2D427C" transform="translate(0,0)"/>
<path d="" fill="#2D427D" transform="translate(0,0)"/>
<path d="" fill="#516199" transform="translate(0,0)"/>
<path d="" fill="#2D427C" transform="translate(0,0)"/>
<path d="" fill="#2D427C" transform="translate(0,0)"/>
<path d="" fill="#2E447C" transform="translate(0,0)"/>
<path d="" fill="#2D427C" transform="translate(0,0)"/>
<path d="" fill="#2D427C" transform="translate(0,0)"/>
<path d="" fill="#2E437D" transform="translate(0,0)"/>
<path d="" fill="#2D427C" transform="translate(0,0)"/>
<path d="" fill="#4F6698" transform="translate(0,0)"/>
<path d="" fill="#2E427C" transform="translate(0,0)"/>
<path d="" fill="#2E437C" transform="translate(0,0)"/>
<path d="" fill="#2C417B" transform="translate(0,0)"/>
<path d="" fill="#2D427C" transform="translate(0,0)"/>
<path d="" fill="#2E437C" transform="translate(0,0)"/>
<path d="" fill="#2D427C" transform="translate(0,0)"/>
<path d="" fill="#2D427C" transform="translate(0,0)"/>
<path d="" fill="#2C427C" transform="translate(0,0)"/>
<path d="" fill="#2C417B" transform="translate(0,0)"/>
<path d="" fill="#2D437C" transform="translate(0,0)"/>
<path d="" fill="#2C427C" transform="translate(0,0)"/>
<path d="" fill="#299B79" transform="translate(0,0)"/>
<path d="" fill="#2E427C" transform="translate(0,0)"/>
<path d="" fill="#2E427C" transform="translate(0,0)"/>
<path d="" fill="#2D427C" transform="translate(0,0)"/>
<path d="" fill="#2D427C" transform="translate(0,0)"/>
<path d="" fill="#2D427C" transform="translate(0,0)"/>
<path d="" fill="#2D427C" transform="translate(0,0)"/>
<path d="" fill="#2E447C" transform="translate(0,0)"/>
<path d="" fill="#2E437D" transform="translate(0,0)"/>
<path d="" fill="#2D437C" transform="translate(0,0)"/>
<path d="" fill="#219572" transform="translate(0,0)"/>
<path d="" fill="#30437E" transform="translate(0,0)"/>
<path d="" fill="#2D437D" transform="translate(0,0)"/>
<path d="" fill="#2D427C" transform="translate(0,0)"/>
<path d="" fill="#3BAA80" transform="translate(0,0)"/>
<path d="" fill="#2E427D" transform="translate(0,0)"/>
<path d="" fill="#2D427C" transform="translate(0,0)"/>
<path d="" fill="#2D427C" transform="translate(0,0)"/>
<path d="" fill="#2E437C" transform="translate(0,0)"/>
<path d="" fill="#2D427C" transform="translate(0,0)"/>
<path d="" fill="#2D427D" transform="translate(0,0)"/>
<path d="" fill="#2D427D" transform="translate(0,0)"/>
<path d="" fill="#309B7D" transform="translate(0,0)"/>
<path d="" fill="#2F437D" transform="translate(0,0)"/>
<path d="" fill="#2D417D" transform="translate(0,0)"/>
<path d="" fill="#2D427D" transform="translate(0,0)"/>
<path d="" fill="#2E437C" transform="translate(0,0)"/>
<path d="" fill="#2D437C" transform="translate(0,0)"/>
<path d="" fill="#2D427C" transform="translate(0,0)"/>
<path d="" fill="#2C427C" transform="translate(0,0)"/>
<path d="" fill="#2D437C" transform="translate(0,0)"/>
<path d="" fill="#2E437D" transform="translate(0,0)"/>
<path d="" fill="#2E427C" transform="translate(0,0)"/>
<path d="" fill="#2D427C" transform="translate(0,0)"/>
<path d="" fill="#2D437C" transform="translate(0,0)"/>
<path d="" fill="#2D427C" transform="translate(0,0)"/>
<path d="" fill="#2D427C" transform="translate(0,0)"/>
<path d="" fill="#2C427C" transform="translate(0,0)"/>
<path d="" fill="#2D427C" transform="translate(0,0)"/>
<path d="" fill="#2E427C" transform="translate(0,0)"/>
<path d="" fill="#2E427C" transform="translate(0,0)"/>
<path d="" fill="#2D427C" transform="translate(0,0)"/>
<path d="" fill="#269A7F" transform="translate(0,0)"/>
<path d="" fill="#2D427C" transform="translate(0,0)"/>
<path d="" fill="#2E437C" transform="translate(0,0)"/>
<path d="" fill="#2E437D" transform="translate(0,0)"/>
<path d="" fill="#2C427C" transform="translate(0,0)"/>
<path d="" fill="#586CA0" transform="translate(0,0)"/>
<path d="" fill="#2D427C" transform="translate(0,0)"/>
<path d="" fill="#2D437C" transform="translate(0,0)"/>
<path d="" fill="#2D427C" transform="translate(0,0)"/>
<path d="" fill="#2D427C" transform="translate(0,0)"/>
<path d="" fill="#2E437C" transform="translate(0,0)"/>
<path d="" fill="#536E96" transform="translate(0,0)"/>
<path d="" fill="#2D427C" transform="translate(0,0)"/>
<path d="" fill="#2E427D" transform="translate(0,0)"/>
<path d="" fill="#2D437C" transform="translate(0,0)"/>
<path d="" fill="#2D437D" transform="translate(0,0)"/>
<path d="" fill="#2C427C" transform="translate(0,0)"/>
<path d="" fill="#2D447D" transform="translate(0,0)"/>
<path d="" fill="#2D427C" transform="translate(0,0)"/>
<path d="" fill="#2E437C" transform="translate(0,0)"/>
<path d="" fill="#2E427C" transform="translate(0,0)"/>
<path d="" fill="#2E427D" transform="translate(0,0)"/>
<path d="" fill="#2C427C" transform="translate(0,0)"/>
<path d="" fill="#2D437D" transform="translate(0,0)"/>
<path d="" fill="#2E437D" transform="translate(0,0)"/>
<path d="" fill="#2D427C" transform="translate(0,0)"/>
<path d="" fill="#2E437C" transform="translate(0,0)"/>
<path d="" fill="#2D437C" transform="translate(0,0)"/>
<path d="" fill="#2E427C" transform="translate(0,0)"/>
<path d="" fill="#2D427C" transform="translate(0,0)"/>
<path d="" fill="#27A16C" transform="translate(0,0)"/>
<path d="" fill="#349882" transform="translate(0,0)"/>
<path d="" fill="#2C427C" transform="translate(0,0)"/>
<path d="" fill="#4B6A9B" transform="translate(0,0)"/>
<path d="" fill="#2E427C" transform="translate(0,0)"/>
<path d="" fill="#2E427C" transform="translate(0,0)"/>
<path d="" fill="#28A15A" transform="translate(0,0)"/>
<path d="" fill="#2D437B" transform="translate(0,0)"/>
<path d="" fill="#2D427C" transform="translate(0,0)"/>
<path d="" fill="#4C6B93" transform="translate(0,0)"/>
<path d="" fill="#2E437D" transform="translate(0,0)"/>
<path d="" fill="#2D427C" transform="translate(0,0)"/>
<path d="" fill="#2A9668" transform="translate(0,0)"/>
<path d="" fill="#486495" transform="translate(0,0)"/>
<path d="" fill="#2E427D" transform="translate(0,0)"/>
<path d="" fill="#2D427C" transform="translate(0,0)"/>
<path d="" fill="#2D427C" transform="translate(0,0)"/>
<path d="" fill="#2D427C" transform="translate(0,0)"/>
<path d="" fill="#2E437C" transform="translate(0,0)"/>
<path d="" fill="#4D6297" transform="translate(0,0)"/>
<path d="" fill="#2E427D" transform="translate(0,0)"/>
<path d="" fill="#2D427C" transform="translate(0,0)"/>
<path d="" fill="#2E427D" transform="translate(0,0)"/>
<path d="" fill="#2B9C7A" transform="translate(0,0)"/>
<path d="" fill="#2D427C" transform="translate(0,0)"/>
<path d="" fill="#2D437D" transform="translate(0,0)"/>
<path d="" fill="#536996" transform="translate(0,0)"/>
<path d="" fill="#2E437B" transform="translate(0,0)"/>
<path d="" fill="#2E427D" transform="translate(0,0)"/>
<path d="" fill="#1F9F6F" transform="translate(0,0)"/>
<path d="" fill="#2D427C" transform="translate(0,0)"/>
<path d="" fill="#506897" transform="translate(0,0)"/>
<path d="" fill="#2E437C" transform="translate(0,0)"/>
<path d="" fill="#2D427D" transform="translate(0,0)"/>
<path d="" fill="#2C9762" transform="translate(0,0)"/>
<path d="" fill="#2D427D" transform="translate(0,0)"/>
<path d="" fill="#2D427C" transform="translate(0,0)"/>
<path d="" fill="#51689A" transform="translate(0,0)"/>
<path d="" fill="#2D427D" transform="translate(0,0)"/>
<path d="" fill="#2E427D" transform="translate(0,0)"/>
<path d="" fill="#279A72" transform="translate(0,0)"/>
<path d="" fill="#2E437C" transform="translate(0,0)"/>
<path d="" fill="#4E6D9D" transform="translate(0,0)"/>
<path d="" fill="#2D427D" transform="translate(0,0)"/>
<path d="" fill="#2D437D" transform="translate(0,0)"/>
<path d="" fill="#2D427C" transform="translate(0,0)"/>
<path d="" fill="#2D427C" transform="translate(0,0)"/>
<path d="" fill="#2D427C" transform="translate(0,0)"/>
<path d="" fill="#329C73" transform="translate(0,0)"/>
<path d="" fill="#2E427C" transform="translate(0,0)"/>
<path d="" fill="#2D427D" transform="translate(0,0)"/>
<path d="" fill="#2D427C" transform="translate(0,0)"/>
<path d="" fill="#2E417D" transform="translate(0,0)"/>
<path d="" fill="#2D437C" transform="translate(0,0)"/>
<path d="" fill="#536A99" transform="translate(0,0)"/>
<path d="" fill="#2D427D" transform="translate(0,0)"/>
<path d="" fill="#2D9D74" transform="translate(0,0)"/>
<path d="" fill="#19926E" transform="translate(0,0)"/>
<path d="" fill="#2E437D" transform="translate(0,0)"/>
<path d="" fill="#2D427D" transform="translate(0,0)"/>
<path d="" fill="#4C6196" transform="translate(0,0)"/>
<path d="" fill="#2D427C" transform="translate(0,0)"/>
<path d="" fill="#2D437C" transform="translate(0,0)"/>
<path d="" fill="#2D437D" transform="translate(0,0)"/>
<path d="" fill="#4E6496" transform="translate(0,0)"/>
<path d="" fill="#2E427C" transform="translate(0,0)"/>
<path d="" fill="#2D427C" transform="translate(0,0)"/>
<path d="" fill="#279677" transform="translate(0,0)"/>
<path d="" fill="#2D427C" transform="translate(0,0)"/>
<path d="" fill="#2D437C" transform="translate(0,0)"/>
<path d="" fill="#2DA076" transform="translate(0,0)"/>
<path d="" fill="#2E437C" transform="translate(0,0)"/>
<path d="" fill="#2D427C" transform="translate(0,0)"/>
<path d="" fill="#2E437D" transform="translate(0,0)"/>
<path d="" fill="#2D427C" transform="translate(0,0)"/>
<path d="" fill="#30437C" transform="translate(0,0)"/>
<path d="" fill="#30447C" transform="translate(0,0)"/>
<path d="" fill="#32B689" transform="translate(0,0)"/>
<path d="" fill="#33B77D" transform="translate(0,0)"/>
<path d="" fill="#2D437C" transform="translate(0,0)"/>
<path d="" fill="#2C427C" transform="translate(0,0)"/>
<path d="" fill="#2D437C" transform="translate(0,0)"/>
<path d="" fill="#2D427C" transform="translate(0,0)"/>
<path d="" fill="#2C457E" transform="translate(0,0)"/>
<path d="" fill="#2D437C" transform="translate(0,0)"/>
<path d="" fill="#2D437C" transform="translate(0,0)"/>
<path d="" fill="#2D427C" transform="translate(0,0)"/>
<path d="" fill="#2D427C" transform="translate(0,0)"/>
<path d="" fill="#2E437C" transform="translate(0,0)"/>
<path d="" fill="#2D427C" transform="translate(0,0)"/>
<path d="" fill="#2E437C" transform="translate(0,0)"/>
<path d="" fill="#2D427C" transform="translate(0,0)"/>
<path d="" fill="#2D427C" transform="translate(0,0)"/>
<path d="" fill="#2D437C" transform="translate(0,0)"/>
<path d="" fill="#2E437C" transform="translate(0,0)"/>
<path d="" fill="#2E437B" transform="translate(0,0)"/>
<path d="" fill="#2D427D" transform="translate(0,0)"/>
<path d="" fill="#2E427D" transform="translate(0,0)"/>
<path d="" fill="#2C417D" transform="translate(0,0)"/>
<path d="" fill="#2D427C" transform="translate(0,0)"/>
<path d="" fill="#2D437B" transform="translate(0,0)"/>
<path d="" fill="#2D427D" transform="translate(0,0)"/>
<path d="" fill="#576B9E" transform="translate(0,0)"/>
<path d="" fill="#516B9B" transform="translate(0,0)"/>
<path d="" fill="#2E437D" transform="translate(0,0)"/>
<path d="" fill="#2D427C" transform="translate(0,0)"/>
<path d="" fill="#2D427D" transform="translate(0,0)"/>
<path d="" fill="#516996" transform="translate(0,0)"/>
<path d="" fill="#2D427D" transform="translate(0,0)"/>
<path d="" fill="#2E437D" transform="translate(0,0)"/>
<path d="" fill="#2C427C" transform="translate(0,0)"/>
<path d="" fill="#516897" transform="translate(0,0)"/>
<path d="" fill="#4D6495" transform="translate(0,0)"/>
<path d="" fill="#50779B" transform="translate(0,0)"/>
<path d="" fill="#4B6494" transform="translate(0,0)"/>
<path d="" fill="#496696" transform="translate(0,0)"/>
<path d="" fill="#506A99" transform="translate(0,0)"/>
<path d="" fill="#4E6B9F" transform="translate(0,0)"/>
<path d="" fill="#2F9073" transform="translate(0,0)"/>
<path d="" fill="#5761A1" transform="translate(0,0)"/>
<path d="" fill="#4E6891" transform="translate(0,0)"/>
<path d="" fill="#51699B" transform="translate(0,0)"/>
<path d="" fill="#516596" transform="translate(0,0)"/>
<path d="" fill="#4B6599" transform="translate(0,0)"/>
<path d="" fill="#2E9D81" transform="translate(0,0)"/>
<path d="" fill="#586691" transform="translate(0,0)"/>
<path d="" fill="#4D6593" transform="translate(0,0)"/>
<path d="" fill="#4A6596" transform="translate(0,0)"/>
<path d="" fill="#2C947A" transform="translate(0,0)"/>
<path d="" fill="#4C609A" transform="translate(0,0)"/>
<path d="" fill="#2A8E76" transform="translate(0,0)"/>
<path d="" fill="#2E9175" transform="translate(0,0)"/>
<path d="" fill="#436290" transform="translate(0,0)"/>
<path d="" fill="#30A084" transform="translate(0,0)"/>
<path d="" fill="#496397" transform="translate(0,0)"/>
<path d="" fill="#2E9379" transform="translate(0,0)"/>
<path d="" fill="#4D659F" transform="translate(0,0)"/>
<path d="" fill="#466794" transform="translate(0,0)"/>
<path d="" fill="#2A9C7C" transform="translate(0,0)"/>
<path d="" fill="#2A9272" transform="translate(0,0)"/>
<path d="" fill="#249170" transform="translate(0,0)"/>
<path d="" fill="#289677" transform="translate(0,0)"/>
<path d="" fill="#269175" transform="translate(0,0)"/>
<path d="" fill="#556A9A" transform="translate(0,0)"/>
<path d="" fill="#4F689D" transform="translate(0,0)"/>
<path d="" fill="#51679A" transform="translate(0,0)"/>
<path d="" fill="#259773" transform="translate(0,0)"/>
<path d="" fill="#51638F" transform="translate(0,0)"/>
<path d="" fill="#329D7D" transform="translate(0,0)"/>
<path d="" fill="#2F9A74" transform="translate(0,0)"/>
<path d="" fill="#526A98" transform="translate(0,0)"/>
<path d="" fill="#269771" transform="translate(0,0)"/>
<path d="" fill="#279979" transform="translate(0,0)"/>
<path d="" fill="#298E76" transform="translate(0,0)"/>
<path d="" fill="#2A9977" transform="translate(0,0)"/>
<path d="" fill="#2B9B74" transform="translate(0,0)"/>
<path d="" fill="#2A9B77" transform="translate(0,0)"/>
<path d="" fill="#2B9774" transform="translate(0,0)"/>
<path d="" fill="#2D9276" transform="translate(0,0)"/>
<path d="" fill="#2C9679" transform="translate(0,0)"/>
<path d="" fill="#2A9B75" transform="translate(0,0)"/>
<path d="" fill="#249B72" transform="translate(0,0)"/>
<path d="" fill="#556D9B" transform="translate(0,0)"/>
<path d="" fill="#358096" transform="translate(0,0)"/>
<path d="" fill="#2A9573" transform="translate(0,0)"/>
<path d="" fill="#2D9274" transform="translate(0,0)"/>
<path d="" fill="#29887C" transform="translate(0,0)"/>
<path d="" fill="#32927D" transform="translate(0,0)"/>
<path d="" fill="#258974" transform="translate(0,0)"/>
<path d="" fill="#2E9176" transform="translate(0,0)"/>
<path d="" fill="#2DA37A" transform="translate(0,0)"/>
<path d="" fill="#278A70" transform="translate(0,0)"/>
<path d="" fill="#2C9E77" transform="translate(0,0)"/>
<path d="" fill="#288E73" transform="translate(0,0)"/>
<path d="" fill="#2A9D7D" transform="translate(0,0)"/>
<path d="" fill="#299274" transform="translate(0,0)"/>
<path d="" fill="#32A37B" transform="translate(0,0)"/>
<path d="" fill="#36A678" transform="translate(0,0)"/>
</svg>
